{
	"asset":{
		"generator":"Khronos glTF Blender I/O v4.0.44",
		"version":"2.0"
	},
	"extensionsUsed":[
		"KHR_materials_transmission",
		"KHR_materials_ior",
		"KHR_materials_clearcoat"
	],
	"scene":0,
	"scenes":[
		{
			"name":"Scene",
			"nodes":[
				0,
				1,
				2,
				3
			]
		}
	],
	"nodes":[
		{
			"mesh":0,
			"name":"camel.002",
			"rotation":[
				0.7071068286895752,
				0,
				0,
				0.7071068286895752
			],
			"scale":[
				0.11069333553314209,
				0.11069333553314209,
				0.11069333553314209
			],
			"translation":[
				0,
				0,
				0.9999999403953552
			]
		},
		{
			"mesh":1,
			"name":"outereye.001"
		},
		{
			"mesh":2,
			"name":"eyeball.001"
		},
		{
			"mesh":3,
			"name":"glasses",
			"rotation":[
				0.05534052476286888,
				0,
				0,
				0.9984675645828247
			],
			"translation":[
				0,
				0.5061028599739075,
				1.0507216453552246
			]
		}
	],
	"materials":[
		{
			"doubleSided":true,
			"name":"CamelToonMat.001",
			"pbrMetallicRoughness":{
				"baseColorTexture":{
					"index":0
				},
				"metallicFactor":0,
				"roughnessFactor":0.5
			}
		},
		{
			"alphaMode":"BLEND",
			"doubleSided":true,
			"extensions":{
				"KHR_materials_transmission":{
					"transmissionFactor":1
				},
				"KHR_materials_ior":{
					"ior":1.4500000476837158
				}
			},
			"name":"Material.008",
			"pbrMetallicRoughness":{
				"baseColorFactor":[
					0.800000011920929,
					0.800000011920929,
					0.800000011920929,
					1
				],
				"metallicFactor":0,
				"roughnessFactor":0
			}
		},
		{
			"doubleSided":true,
			"name":"Material.003",
			"pbrMetallicRoughness":{
				"metallicFactor":0,
				"roughnessFactor":0.5
			}
		},
		{
			"doubleSided":true,
			"name":"Material.002",
			"pbrMetallicRoughness":{
				"baseColorFactor":[
					0.08561079204082489,
					0.01669883355498314,
					0.008643928915262222,
					1
				],
				"metallicFactor":0,
				"roughnessFactor":0.5
			}
		},
		{
			"doubleSided":true,
			"name":"Material.001",
			"pbrMetallicRoughness":{
				"baseColorFactor":[
					0,
					0,
					0,
					1
				],
				"metallicFactor":0
			}
		},
		{
			"doubleSided":true,
			"name":"Silver.001",
			"pbrMetallicRoughness":{
				"baseColorFactor":[
					0.7283980250358582,
					0.6939375400543213,
					0.6456019878387451,
					1
				],
				"metallicFactor":0.9444444179534912,
				"roughnessFactor":0.10236220806837082
			}
		},
		{
			"doubleSided":true,
			"extensions":{
				"KHR_materials_transmission":{
					"transmissionFactor":0.26818180084228516
				},
				"KHR_materials_ior":{
					"ior":1.4500000476837158
				}
			},
			"name":"Material.009",
			"pbrMetallicRoughness":{
				"baseColorFactor":[
					0.00807574950158596,
					0.004675713367760181,
					0.004337708931416273,
					1
				],
				"metallicFactor":0,
				"roughnessFactor":0.699999988079071
			}
		},
		{
			"doubleSided":true,
			"name":"Gold.001",
			"pbrMetallicRoughness":{
				"baseColorFactor":[
					0.8000000715255737,
					0.34671202301979065,
					0.1134803295135498,
					1
				],
				"roughnessFactor":0.22223791480064392
			}
		},
		{
			"alphaMode":"BLEND",
			"doubleSided":true,
			"extensions":{
				"KHR_materials_clearcoat":{
					"clearcoatFactor":0.0017045624554157257,
					"clearcoatRoughnessFactor":0.029999999329447746
				},
				"KHR_materials_transmission":{
					"transmissionFactor":1
				},
				"KHR_materials_ior":{
					"ior":1.0000001192092896
				}
			},
			"name":"Material.010",
			"pbrMetallicRoughness":{
				"baseColorTexture":{
					"index":1
				},
				"metallicFactor":0.022727273404598236,
				"roughnessFactor":0
			}
		},
		{
			"doubleSided":true,
			"name":"Gold",
			"pbrMetallicRoughness":{
				"baseColorFactor":[
					0.8000000715255737,
					0.34671202301979065,
					0.1134803295135498,
					1
				],
				"roughnessFactor":0.22223791480064392
			}
		}
	],
	"meshes":[
		{
			"name":"Plane.002",
			"primitives":[
				{
					"attributes":{
						"POSITION":0,
						"NORMAL":1,
						"TEXCOORD_0":2
					},
					"indices":3,
					"material":0
				}
			]
		},
		{
			"name":"Sphere.001",
			"primitives":[
				{
					"attributes":{
						"POSITION":4,
						"NORMAL":5,
						"TEXCOORD_0":6
					},
					"indices":7,
					"material":1
				}
			]
		},
		{
			"name":"Sphere.003",
			"primitives":[
				{
					"attributes":{
						"POSITION":8,
						"NORMAL":9,
						"TEXCOORD_0":10
					},
					"indices":11,
					"material":2
				},
				{
					"attributes":{
						"POSITION":12,
						"NORMAL":13,
						"TEXCOORD_0":14
					},
					"indices":15,
					"material":3
				},
				{
					"attributes":{
						"POSITION":16,
						"NORMAL":17,
						"TEXCOORD_0":18
					},
					"indices":19,
					"material":4
				}
			]
		},
		{
			"name":"Plane.014",
			"primitives":[
				{
					"attributes":{
						"POSITION":20,
						"NORMAL":21,
						"TEXCOORD_0":22
					},
					"indices":23,
					"material":5
				},
				{
					"attributes":{
						"POSITION":24,
						"NORMAL":25,
						"TEXCOORD_0":26
					},
					"indices":27,
					"material":6
				},
				{
					"attributes":{
						"POSITION":28,
						"NORMAL":29,
						"TEXCOORD_0":30
					},
					"indices":31,
					"material":7
				},
				{
					"attributes":{
						"POSITION":32,
						"NORMAL":33,
						"TEXCOORD_0":34
					},
					"indices":35,
					"material":8
				},
				{
					"attributes":{
						"POSITION":36,
						"NORMAL":37,
						"TEXCOORD_0":38
					},
					"indices":39,
					"material":9
				}
			]
		}
	],
	"textures":[
		{
			"sampler":0,
			"source":0
		},
		{
			"sampler":0,
			"source":1
		}
	],
	"images":[
		{
			"mimeType":"image/png",
			"name":"Camel_baked_texture",
			"uri":"Texture/Camel_baked_texture.png"
		},
		{
			"mimeType":"image/png",
			"name":"Untitled",
			"uri":"Texture/Untitled.png"
		}
	],
	"accessors":[
		{
			"bufferView":0,
			"componentType":5126,
			"count":11581,
			"max":[
				7.206290245056152,
				6.755029678344727,
				4.7243547439575195
			],
			"min":[
				-7.206290245056152,
				-16.16860580444336,
				-7.9974565505981445
			],
			"type":"VEC3"
		},
		{
			"bufferView":1,
			"componentType":5126,
			"count":11581,
			"type":"VEC3"
		},
		{
			"bufferView":2,
			"componentType":5126,
			"count":11581,
			"type":"VEC2"
		},
		{
			"bufferView":3,
			"componentType":5123,
			"count":65952,
			"type":"SCALAR"
		},
		{
			"bufferView":4,
			"componentType":5126,
			"count":1118,
			"max":[
				0.4344874322414398,
				0.5379438996315002,
				0.7238026261329651
			],
			"min":[
				-0.4344874322414398,
				0.279281347990036,
				0.46541017293930054
			],
			"type":"VEC3"
		},
		{
			"bufferView":5,
			"componentType":5126,
			"count":1118,
			"type":"VEC3"
		},
		{
			"bufferView":6,
			"componentType":5126,
			"count":1118,
			"type":"VEC2"
		},
		{
			"bufferView":7,
			"componentType":5123,
			"count":5760,
			"type":"SCALAR"
		},
		{
			"bufferView":8,
			"componentType":5126,
			"count":988,
			"max":[
				0.43060100078582764,
				0.5343000292778015,
				0.7121633291244507
			],
			"min":[
				-0.43060100078582764,
				0.28326016664505005,
				0.4695896506309509
			],
			"type":"VEC3"
		},
		{
			"bufferView":9,
			"componentType":5126,
			"count":988,
			"type":"VEC3"
		},
		{
			"bufferView":10,
			"componentType":5126,
			"count":988,
			"type":"VEC2"
		},
		{
			"bufferView":11,
			"componentType":5123,
			"count":5184,
			"type":"SCALAR"
		},
		{
			"bufferView":12,
			"componentType":5126,
			"count":198,
			"max":[
				0.3846898674964905,
				0.4964066743850708,
				0.7120504975318909
			],
			"min":[
				-0.3846898674964905,
				0.36295193433761597,
				0.6793695092201233
			],
			"type":"VEC3"
		},
		{
			"bufferView":13,
			"componentType":5126,
			"count":198,
			"type":"VEC3"
		},
		{
			"bufferView":14,
			"componentType":5126,
			"count":198,
			"type":"VEC2"
		},
		{
			"bufferView":15,
			"componentType":5123,
			"count":768,
			"type":"SCALAR"
		},
		{
			"bufferView":16,
			"componentType":5126,
			"count":262,
			"max":[
				0.3875330090522766,
				0.49915364384651184,
				0.7121633291244507
			],
			"min":[
				-0.3875330090522766,
				0.3599751591682434,
				0.6795750260353088
			],
			"type":"VEC3"
		},
		{
			"bufferView":17,
			"componentType":5126,
			"count":262,
			"type":"VEC3"
		},
		{
			"bufferView":18,
			"componentType":5126,
			"count":262,
			"type":"VEC2"
		},
		{
			"bufferView":19,
			"componentType":5123,
			"count":576,
			"type":"SCALAR"
		},
		{
			"bufferView":20,
			"componentType":5126,
			"count":214,
			"max":[
				0.585938572883606,
				0.24032360315322876,
				-0.02308390662074089
			],
			"min":[
				-0.585938572883606,
				0.08808965981006622,
				-0.18163500726222992
			],
			"type":"VEC3"
		},
		{
			"bufferView":21,
			"componentType":5126,
			"count":214,
			"type":"VEC3"
		},
		{
			"bufferView":22,
			"componentType":5126,
			"count":214,
			"type":"VEC2"
		},
		{
			"bufferView":23,
			"componentType":5123,
			"count":852,
			"type":"SCALAR"
		},
		{
			"bufferView":24,
			"componentType":5126,
			"count":2103,
			"max":[
				0.5839362740516663,
				0.13075315952301025,
				-0.1852215677499771
			],
			"min":[
				-0.5839362740516663,
				-0.05293474346399307,
				-1.3564854860305786
			],
			"type":"VEC3"
		},
		{
			"bufferView":25,
			"componentType":5126,
			"count":2103,
			"type":"VEC3"
		},
		{
			"bufferView":26,
			"componentType":5126,
			"count":2103,
			"type":"VEC2"
		},
		{
			"bufferView":27,
			"componentType":5123,
			"count":11148,
			"type":"SCALAR"
		},
		{
			"bufferView":28,
			"componentType":5126,
			"count":2683,
			"max":[
				0.567510724067688,
				0.22178956866264343,
				0.01478428952395916
			],
			"min":[
				-0.567510724067688,
				-0.19276446104049683,
				-0.9887428879737854
			],
			"type":"VEC3"
		},
		{
			"bufferView":29,
			"componentType":5126,
			"count":2683,
			"type":"VEC3"
		},
		{
			"bufferView":30,
			"componentType":5126,
			"count":2683,
			"type":"VEC2"
		},
		{
			"bufferView":31,
			"componentType":5123,
			"count":13980,
			"type":"SCALAR"
		},
		{
			"bufferView":32,
			"componentType":5126,
			"count":913,
			"max":[
				0.5404481887817383,
				0.2060086727142334,
				0.010670487768948078
			],
			"min":[
				-0.5404480695724487,
				-0.17621837556362152,
				-0.11751027405261993
			],
			"type":"VEC3"
		},
		{
			"bufferView":33,
			"componentType":5126,
			"count":913,
			"type":"VEC3"
		},
		{
			"bufferView":34,
			"componentType":5126,
			"count":913,
			"type":"VEC2"
		},
		{
			"bufferView":35,
			"componentType":5123,
			"count":4704,
			"type":"SCALAR"
		},
		{
			"bufferView":36,
			"componentType":5126,
			"count":100,
			"max":[
				0.5839233994483948,
				0.12399816513061523,
				-0.1735234260559082
			],
			"min":[
				-0.5839233994483948,
				0.09360682964324951,
				-0.19567501544952393
			],
			"type":"VEC3"
		},
		{
			"bufferView":37,
			"componentType":5126,
			"count":100,
			"type":"VEC3"
		},
		{
			"bufferView":38,
			"componentType":5126,
			"count":100,
			"type":"VEC2"
		},
		{
			"bufferView":39,
			"componentType":5123,
			"count":264,
			"type":"SCALAR"
		}
	],
	"bufferViews":[
		{
			"buffer":0,
			"byteLength":138972,
			"byteOffset":0,
			"target":34962
		},
		{
			"buffer":0,
			"byteLength":138972,
			"byteOffset":138972,
			"target":34962
		},
		{
			"buffer":0,
			"byteLength":92648,
			"byteOffset":277944,
			"target":34962
		},
		{
			"buffer":0,
			"byteLength":131904,
			"byteOffset":370592,
			"target":34963
		},
		{
			"buffer":0,
			"byteLength":13416,
			"byteOffset":502496,
			"target":34962
		},
		{
			"buffer":0,
			"byteLength":13416,
			"byteOffset":515912,
			"target":34962
		},
		{
			"buffer":0,
			"byteLength":8944,
			"byteOffset":529328,
			"target":34962
		},
		{
			"buffer":0,
			"byteLength":11520,
			"byteOffset":538272,
			"target":34963
		},
		{
			"buffer":0,
			"byteLength":11856,
			"byteOffset":549792,
			"target":34962
		},
		{
			"buffer":0,
			"byteLength":11856,
			"byteOffset":561648,
			"target":34962
		},
		{
			"buffer":0,
			"byteLength":7904,
			"byteOffset":573504,
			"target":34962
		},
		{
			"buffer":0,
			"byteLength":10368,
			"byteOffset":581408,
			"target":34963
		},
		{
			"buffer":0,
			"byteLength":2376,
			"byteOffset":591776,
			"target":34962
		},
		{
			"buffer":0,
			"byteLength":2376,
			"byteOffset":594152,
			"target":34962
		},
		{
			"buffer":0,
			"byteLength":1584,
			"byteOffset":596528,
			"target":34962
		},
		{
			"buffer":0,
			"byteLength":1536,
			"byteOffset":598112,
			"target":34963
		},
		{
			"buffer":0,
			"byteLength":3144,
			"byteOffset":599648,
			"target":34962
		},
		{
			"buffer":0,
			"byteLength":3144,
			"byteOffset":602792,
			"target":34962
		},
		{
			"buffer":0,
			"byteLength":2096,
			"byteOffset":605936,
			"target":34962
		},
		{
			"buffer":0,
			"byteLength":1152,
			"byteOffset":608032,
			"target":34963
		},
		{
			"buffer":0,
			"byteLength":2568,
			"byteOffset":609184,
			"target":34962
		},
		{
			"buffer":0,
			"byteLength":2568,
			"byteOffset":611752,
			"target":34962
		},
		{
			"buffer":0,
			"byteLength":1712,
			"byteOffset":614320,
			"target":34962
		},
		{
			"buffer":0,
			"byteLength":1704,
			"byteOffset":616032,
			"target":34963
		},
		{
			"buffer":0,
			"byteLength":25236,
			"byteOffset":617736,
			"target":34962
		},
		{
			"buffer":0,
			"byteLength":25236,
			"byteOffset":642972,
			"target":34962
		},
		{
			"buffer":0,
			"byteLength":16824,
			"byteOffset":668208,
			"target":34962
		},
		{
			"buffer":0,
			"byteLength":22296,
			"byteOffset":685032,
			"target":34963
		},
		{
			"buffer":0,
			"byteLength":32196,
			"byteOffset":707328,
			"target":34962
		},
		{
			"buffer":0,
			"byteLength":32196,
			"byteOffset":739524,
			"target":34962
		},
		{
			"buffer":0,
			"byteLength":21464,
			"byteOffset":771720,
			"target":34962
		},
		{
			"buffer":0,
			"byteLength":27960,
			"byteOffset":793184,
			"target":34963
		},
		{
			"buffer":0,
			"byteLength":10956,
			"byteOffset":821144,
			"target":34962
		},
		{
			"buffer":0,
			"byteLength":10956,
			"byteOffset":832100,
			"target":34962
		},
		{
			"buffer":0,
			"byteLength":7304,
			"byteOffset":843056,
			"target":34962
		},
		{
			"buffer":0,
			"byteLength":9408,
			"byteOffset":850360,
			"target":34963
		},
		{
			"buffer":0,
			"byteLength":1200,
			"byteOffset":859768,
			"target":34962
		},
		{
			"buffer":0,
			"byteLength":1200,
			"byteOffset":860968,
			"target":34962
		},
		{
			"buffer":0,
			"byteLength":800,
			"byteOffset":862168,
			"target":34962
		},
		{
			"buffer":0,
			"byteLength":528,
			"byteOffset":862968,
			"target":34963
		}
	],
	"samplers":[
		{
			"magFilter":9729,
			"minFilter":9987
		}
	],
	"buffers":[
		{
			"byteLength":863496,
			"uri":"camel.bin"
		}
	]
}
